<svg xmlns="http://www.w3.org/2000/svg" viewBox="0 0 200 200" fill="none">
  <rect width="200" height="200" rx="16" fill="#1a1a2e"/>
  <rect x="50" y="50" width="100" height="100" rx="8" stroke="#ED1C24" stroke-width="3" fill="#16213e"/>
  <rect x="70" y="70" width="60" height="60" rx="4" fill="#ED1C24" opacity="0.2"/>
  <text x="100" y="108" text-anchor="middle" fill="#ED1C24" font-size="20" font-family="Arial" font-weight="bold">CPU</text>
  <!-- Pins -->
  <rect x="60" y="40" width="4" height="12" fill="#666"/>
  <rect x="80" y="40" width="4" height="12" fill="#666"/>
  <rect x="100" y="40" width="4" height="12" fill="#666"/>
  <rect x="120" y="40" width="4" height="12" fill="#666"/>
  <rect x="60" y="148" width="4" height="12" fill="#666"/>
  <rect x="80" y="148" width="4" height="12" fill="#666"/>
  <rect x="100" y="148" width="4" height="12" fill="#666"/>
  <rect x="120" y="148" width="4" height="12" fill="#666"/>
  <rect x="40" y="60" width="12" height="4" fill="#666"/>
  <rect x="40" y="80" width="12" height="4" fill="#666"/>
  <rect x="40" y="100" width="12" height="4" fill="#666"/>
  <rect x="40" y="120" width="12" height="4" fill="#666"/>
  <rect x="148" y="60" width="12" height="4" fill="#666"/>
  <rect x="148" y="80" width="12" height="4" fill="#666"/>
  <rect x="148" y="100" width="12" height="4" fill="#666"/>
  <rect x="148" y="120" width="12" height="4" fill="#666"/>
</svg>
